<svg width="87" height="33" viewBox="0 0 87 33" fill="none" xmlns="http://www.w3.org/2000/svg">
<path d="M10.8462 18.42C7.53418 18.052 4.95818 17.3314 3.11818 16.258C1.49284 15.246 0.680176 14.0347 0.680176 12.624C0.680176 10.0174 2.98018 7.54869 7.58018 5.21802C10.0948 3.96069 12.9008 2.96402 15.9982 2.22802C19.0955 1.46135 22.4995 0.970688 26.2102 0.756022C27.3755 0.694687 28.5255 0.648687 29.6602 0.618021C30.8255 0.587355 31.9755 0.572021 33.1102 0.572021C36.0235 0.572021 38.6608 0.679355 41.0222 0.894023C43.4142 1.07802 45.5455 1.36936 47.4162 1.76802C51.4335 2.65736 53.4422 3.88402 53.4422 5.44802C53.4422 5.84669 53.3042 6.27602 53.0282 6.73602C52.5682 7.44135 52.1848 7.79402 51.8782 7.79402C51.7862 7.79402 51.7402 7.74802 51.7402 7.65602C51.7402 7.53336 51.8628 7.19602 52.1082 6.64402C52.2308 6.42935 52.2922 6.23002 52.2922 6.04602C52.2922 4.69669 49.7775 3.66935 44.7482 2.96402C42.8775 2.71869 40.7768 2.53469 38.4462 2.41202C36.1155 2.28936 33.5548 2.22802 30.7642 2.22802C29.9668 2.22802 29.1848 2.24336 28.4182 2.27402C27.6822 2.27402 26.9768 2.28935 26.3022 2.32002C20.0462 2.56535 14.5722 3.86869 9.88018 6.23002C5.37218 8.46869 3.11818 10.7994 3.11818 13.222C3.11818 15.7367 5.84751 17.2854 11.3062 17.868C11.7048 17.8987 11.9042 17.9907 11.9042 18.144C11.9042 18.42 11.5515 18.512 10.8462 18.42ZM12.5022 32.496C11.2448 32.496 10.2942 31.99 9.65018 30.978C9.40484 30.5794 9.28218 30.2574 9.28218 30.012C9.28218 29.7667 9.38951 29.644 9.60418 29.644C9.78818 29.644 10.2328 29.9967 10.9382 30.702C11.6742 31.438 12.4102 31.806 13.1462 31.806C14.4342 31.806 15.8908 30.7174 17.5162 28.54C19.0188 26.516 21.1502 22.7747 23.9102 17.316C25.4435 14.2494 26.6702 11.888 27.5902 10.232C28.5102 8.54536 29.0928 7.54869 29.3382 7.24202C29.7675 6.78202 30.1968 6.55202 30.6262 6.55202C30.9942 6.55202 31.6382 6.76669 32.5582 7.19602C32.7115 7.28802 32.7882 7.39536 32.7882 7.51802C32.7882 7.70202 32.6808 7.87069 32.4662 8.02402C32.2515 8.17735 32.0675 8.23869 31.9142 8.20802C31.2702 8.11602 29.1848 11.474 25.6582 18.282C24.5848 20.3674 23.5422 22.2534 22.5302 23.94C21.5182 25.6267 20.5522 27.0987 19.6322 28.356C18.8655 29.4294 17.7768 30.3954 16.3662 31.254C14.9862 32.082 13.6982 32.496 12.5022 32.496Z" fill="#222222"/>
<path d="M32.1377 29.552C31.7084 29.552 31.4937 29.414 31.4937 29.138C31.4937 29.1074 31.5244 29 31.5857 28.816C33.027 26.056 34.729 22.1154 36.6917 16.994C36.9064 16.442 37.2744 15.9667 37.7957 15.568C38.317 15.1387 38.7617 14.924 39.1297 14.924C39.5284 14.924 39.697 15.1387 39.6357 15.568C39.329 16.212 38.961 17.04 38.5317 18.052C38.1024 19.064 37.5964 20.2447 37.0137 21.594C37.8724 20.4594 39.145 19.1867 40.8317 17.776C41.6904 17.0707 42.4264 16.488 43.0397 16.028C43.6837 15.568 44.2204 15.2307 44.6497 15.016C45.079 14.8014 45.5544 14.694 46.0757 14.694C46.689 14.694 47.2104 14.8474 47.6397 15.154C48.069 15.4607 48.2837 15.8134 48.2837 16.212C48.2837 16.4574 48.161 16.7334 47.9157 17.04C47.701 17.316 47.471 17.454 47.2257 17.454C47.103 17.454 46.8424 17.3314 46.4437 17.086C46.0757 16.81 45.677 16.672 45.2477 16.672C44.7877 16.672 44.251 16.81 43.6377 17.086C39.743 18.834 36.385 22.7747 33.5637 28.908C33.3797 29.3374 32.9044 29.552 32.1377 29.552Z" fill="#222222"/>
<path d="M55.1632 29.506C54.5499 29.506 53.9826 29.3067 53.4612 28.908C52.9706 28.5094 52.6792 28.126 52.5872 27.758C52.4952 27.3287 53.0626 25.7954 54.2892 23.158L53.2312 24.676C52.7712 25.3507 52.3112 25.9487 51.8512 26.47C51.3912 26.9914 50.9619 27.4514 50.5632 27.85C49.3979 28.954 48.4166 29.414 47.6192 29.23C45.7792 28.8007 44.8592 27.758 44.8592 26.102C44.8592 24.7834 45.4879 23.0967 46.7452 21.042C47.1439 20.4287 47.6499 19.8154 48.2632 19.202C48.8766 18.5887 49.5819 17.9907 50.3792 17.408C52.4339 15.9054 54.4119 15.154 56.3132 15.154C57.4786 15.154 58.5826 15.4607 59.6252 16.074C59.9626 16.3194 60.1312 16.58 60.1312 16.856C60.1312 17.0707 60.0699 17.178 59.9472 17.178C59.9166 17.178 59.8859 17.1627 59.8552 17.132C59.2112 16.4267 58.3526 16.074 57.2792 16.074C56.0219 16.074 54.6572 16.5494 53.1852 17.5C51.7132 18.4507 50.3946 19.7234 49.2292 21.318C47.5732 23.618 46.7452 25.4887 46.7452 26.93C46.7452 27.758 47.0366 28.2794 47.6192 28.494C48.3552 28.8007 49.9192 27.436 52.3112 24.4C53.2926 23.204 54.1052 22.1307 54.7492 21.18C55.4239 20.2294 55.9606 19.4167 56.3592 18.742C56.5432 18.4047 56.8806 18.236 57.3712 18.236C58.2912 18.236 58.7512 18.512 58.7512 19.064C58.7512 19.156 58.7359 19.2174 58.7052 19.248C56.0372 23.48 54.7032 26.3474 54.7032 27.85C54.7032 28.218 54.8106 28.4174 55.0252 28.448C55.6692 28.632 56.7426 28.1567 58.2452 27.022C60.0546 25.6727 61.7566 23.8787 63.3512 21.64C63.6886 21.18 63.9952 20.95 64.2712 20.95C64.3632 20.95 64.4092 20.9807 64.4092 21.042C64.4092 21.1954 64.2712 21.4867 63.9952 21.916C63.3512 22.928 62.6306 23.8787 61.8332 24.768C61.0666 25.6574 60.2079 26.4854 59.2572 27.252C57.9079 28.3867 56.8039 29.092 55.9452 29.368C55.7306 29.46 55.4699 29.506 55.1632 29.506Z" fill="#222222"/>
<path d="M64.7934 29.368C64.1494 29.368 63.4901 29.2147 62.8154 28.908C62.1714 28.6014 61.6194 28.1414 61.1594 27.528C60.6994 26.884 60.4694 26.1174 60.4694 25.228C60.4694 24.0014 60.9294 22.606 61.8494 21.042C62.7694 19.478 63.9807 18.098 65.4834 16.902C66.4341 16.1354 67.2314 15.614 67.8754 15.338C68.7954 14.9394 69.6694 14.74 70.4974 14.74C71.5401 14.74 72.3527 15.0774 72.9354 15.752C73.2421 16.0587 73.3954 16.3807 73.3954 16.718C73.3954 17.27 73.1347 17.546 72.6134 17.546C72.2454 17.546 71.9694 17.316 71.7854 16.856C71.5707 16.212 71.1107 15.89 70.4054 15.89C69.5467 15.89 68.5807 16.3654 67.5074 17.316C66.3114 18.2667 65.2227 19.57 64.2414 21.226C63.1681 23.0047 62.6314 24.5687 62.6314 25.918C62.6314 27.2367 63.0301 28.0647 63.8274 28.402C64.1034 28.5247 64.4561 28.586 64.8854 28.586C66.3574 28.586 68.0287 27.9727 69.8994 26.746C71.9541 25.4274 73.7174 23.7254 75.1894 21.64C75.5267 21.18 75.8334 20.95 76.1094 20.95C76.2014 20.95 76.2474 20.9807 76.2474 21.042C76.2474 21.1954 76.1094 21.4867 75.8334 21.916C74.4227 24.0934 72.4447 25.964 69.8994 27.528C68.7341 28.2334 67.7987 28.724 67.0934 29C66.4187 29.2454 65.6521 29.368 64.7934 29.368Z" fill="#222222"/>
<path d="M75.1538 29.368C74.2645 29.368 73.4825 29.1534 72.8078 28.724C71.9185 28.1107 71.4738 27.2214 71.4738 26.056C71.4738 24.7987 72.0105 23.2654 73.0838 21.456C74.5252 19.0947 76.6411 17.0247 79.4318 15.246C80.1371 14.786 80.8425 14.556 81.5478 14.556C82.4678 14.556 83.1272 14.8474 83.5258 15.43C83.7712 15.7674 83.8938 16.1507 83.8938 16.58C83.8938 17.868 82.8511 19.2787 80.7658 20.812C80.1525 21.2414 79.4932 21.64 78.7878 22.008C78.1132 22.3454 77.3772 22.5907 76.5798 22.744L74.6018 23.158C73.8658 24.4767 73.4978 25.5807 73.4978 26.47C73.4978 27.6967 74.2185 28.31 75.6598 28.31C76.7945 28.31 78.1745 27.8347 79.7998 26.884C81.9772 25.6267 83.8478 23.8787 85.4118 21.64C85.6572 21.272 85.8871 21.088 86.1018 21.088C86.1938 21.088 86.2398 21.1494 86.2398 21.272C86.2398 21.4254 86.1325 21.6554 85.9178 21.962C82.9431 26.4394 79.5852 28.8927 75.8438 29.322C75.7212 29.3527 75.5985 29.368 75.4758 29.368C75.3838 29.368 75.2765 29.368 75.1538 29.368ZM75.1538 22.376C76.0125 22.376 77.1165 21.9927 78.4658 21.226C80.3671 20.1527 81.7012 18.7727 82.4678 17.086C82.6825 16.6567 82.7898 16.304 82.7898 16.028C82.7898 15.752 82.6825 15.614 82.4678 15.614C82.0692 15.614 81.2565 16.1047 80.0298 17.086C79.1405 17.8527 78.2665 18.6807 77.4078 19.57C76.5798 20.4287 75.7825 21.3487 75.0158 22.33C74.9851 22.3607 75.0311 22.376 75.1538 22.376Z" fill="#222222"/>
</svg>
