<svg width="87" height="29" viewBox="0 0 87 29" fill="none" xmlns="http://www.w3.org/2000/svg">
<path d="M15.4101 4.7999C15.3101 4.0599 14.7601 3.3299 13.7601 2.6099C12.7601 1.8899 11.6901 1.5299 10.5501 1.5299C9.41006 1.5299 8.48006 1.6899 7.76006 2.0099C7.04006 2.3299 6.46006 2.7599 6.02006 3.2999C5.58006 3.8399 5.22006 4.5299 4.94006 5.3699C4.46006 6.8899 4.22006 8.8199 4.22006 11.1599C4.22006 14.5599 4.44006 16.7999 4.88006 17.8799C5.10006 18.4199 5.38006 18.9599 5.72006 19.4999C6.38006 20.5199 7.49006 21.0299 9.05006 21.0299C10.5501 21.0299 11.6401 20.5099 12.3201 19.4699C13.0401 18.3899 13.4801 17.1399 13.6401 15.7199C13.8001 14.3799 13.8801 13.0599 13.8801 11.7599C13.8801 10.4399 13.8701 9.5399 13.8501 9.0599C13.9301 9.0599 14.1001 9.0599 14.3601 9.0599C14.6201 9.0599 15.0801 8.9099 15.7401 8.6099C16.4001 8.3099 16.8001 7.8199 16.9401 7.1399C17.3401 8.4799 17.5401 9.8199 17.5401 11.1599C17.5401 14.0999 16.7901 16.5799 15.2901 18.5999C13.8101 20.5999 11.7301 21.5999 9.05006 21.5999C6.37006 21.5999 4.28006 20.5999 2.78006 18.5999C1.30006 16.5799 0.560059 14.0499 0.560059 11.0099C0.560059 7.9699 1.36006 5.5299 2.96006 3.6899C4.58006 1.8299 6.81006 0.899902 9.65006 0.899902C11.3701 0.899902 12.8601 1.3499 14.1201 2.2499C15.3801 3.1499 16.0101 4.1499 16.0101 5.2499C16.0101 5.9299 15.7901 6.4899 15.3501 6.9299C14.9301 7.3699 14.4401 7.5899 13.8801 7.5899C13.3201 7.5899 12.8401 7.4199 12.4401 7.0799C12.0401 6.7399 11.8401 6.2899 11.8401 5.7299C11.8401 5.1699 11.9901 4.7299 12.2901 4.4099C12.6101 4.0899 12.9901 3.9299 13.4301 3.9299C14.1301 3.9299 14.6001 4.2399 14.8401 4.8599C14.9001 5.0199 15.0001 5.0999 15.1401 5.0999C15.3601 5.0999 15.4501 4.9999 15.4101 4.7999Z" fill="#222222"/>
<path d="M29.4777 8.8799C29.4777 8.3599 29.2877 7.9299 28.9077 7.5899C28.5277 7.2499 28.0177 7.0799 27.3777 7.0799C26.7377 7.0799 26.1377 7.3399 25.5777 7.8599C25.0377 8.3599 24.6177 9.0199 24.3177 9.8399C23.7777 11.4199 23.5077 13.1299 23.5077 14.9699V20.5499H25.6977V20.9999H18.8577V20.5499H20.8377V7.6499H18.7077V7.1999H19.3377C20.9377 7.1999 22.3477 7.0699 23.5677 6.8099V9.9299H23.7477C24.5877 7.7099 25.8477 6.5999 27.5277 6.5999C28.2677 6.5999 28.8677 6.8399 29.3277 7.3199C29.8077 7.7799 30.0477 8.3599 30.0477 9.0599C30.0477 9.7399 29.8477 10.2899 29.4477 10.7099C29.0677 11.1099 28.6077 11.3099 28.0677 11.3099C27.5477 11.3099 27.1177 11.1599 26.7777 10.8599C26.4577 10.5399 26.2977 10.1599 26.2977 9.7199C26.2977 9.2599 26.4277 8.8799 26.6877 8.5799C26.9477 8.2599 27.2977 8.0999 27.7377 8.0999C28.4177 8.0999 28.8177 8.3599 28.9377 8.8799C28.9777 9.0599 29.0777 9.1499 29.2377 9.1499C29.3977 9.1499 29.4777 9.0599 29.4777 8.8799Z" fill="#222222"/>
<path d="M35.5738 6.5999C37.9538 6.5999 39.5238 7.1399 40.2838 8.2199C41.0638 9.2799 41.4538 11.1399 41.4538 13.7999V19.1099C41.4538 19.9299 41.6338 20.3399 41.9938 20.3399C42.7338 20.3399 43.2238 19.1899 43.4638 16.8899L44.0038 16.9499C43.7038 20.0499 42.6938 21.5999 40.9738 21.5999C40.4738 21.5999 40.0838 21.4199 39.8038 21.0599C39.5438 20.6999 39.3738 20.3099 39.2938 19.8899C39.2338 19.4499 39.2038 18.9099 39.2038 18.2699H39.0238C38.7638 19.3299 38.2338 20.1499 37.4338 20.7299C36.6338 21.3099 35.6038 21.5999 34.3438 21.5999C33.1038 21.5999 32.0138 21.2699 31.0738 20.6099C30.1338 19.9299 29.6638 18.9599 29.6638 17.6999C29.6638 16.7599 29.9338 15.9799 30.4738 15.3599C31.5938 14.0799 34.1338 13.4399 38.0938 13.4399C38.3138 13.4399 38.5438 13.4399 38.7838 13.4399V11.9699C38.7838 10.3899 38.5138 9.1999 37.9738 8.3999C37.4338 7.5999 36.4938 7.1999 35.1538 7.1999C33.8338 7.1999 32.8638 7.4699 32.2438 8.0099C31.6238 8.5499 31.3138 9.1099 31.3138 9.6899C31.3138 9.8699 31.3938 9.9599 31.5538 9.9599C31.7338 9.9599 31.8338 9.8699 31.8538 9.6899C31.9738 9.1699 32.3738 8.9099 33.0538 8.9099C33.4938 8.9099 33.8438 9.0699 34.1038 9.3899C34.3638 9.6899 34.4938 10.0699 34.4938 10.5299C34.4938 10.9699 34.3238 11.3499 33.9838 11.6699C33.6638 11.9699 33.2338 12.1199 32.6938 12.1199C32.1738 12.1199 31.7138 11.9199 31.3138 11.5199C30.9338 11.0999 30.7438 10.5899 30.7438 9.9899C30.7438 8.8699 31.2138 8.0299 32.1538 7.4699C33.0938 6.8899 34.2338 6.5999 35.5738 6.5999ZM38.7838 15.9899V13.9799C38.5838 13.9799 38.2638 13.9799 37.8238 13.9799C37.4038 13.9799 36.8938 14.0099 36.2938 14.0699C35.7138 14.1299 35.1138 14.2799 34.4938 14.5199C33.2138 14.9799 32.5738 15.9999 32.5738 17.5799C32.5738 18.5399 32.8038 19.3099 33.2638 19.8899C33.7238 20.4699 34.4638 20.7599 35.4838 20.7599C36.5038 20.7599 37.3038 20.2999 37.8838 19.3799C38.4838 18.4599 38.7838 17.3299 38.7838 15.9899Z" fill="#222222"/>
<path d="M50.4355 20.5499V20.9999H43.8055V20.5499H45.7855V7.6499H43.6555V7.1999H44.2855C45.8655 7.1999 47.2755 7.0699 48.5155 6.8099V9.8099H48.6955C49.0355 8.8499 49.6055 8.0799 50.4055 7.4999C51.2255 6.8999 52.1355 6.5999 53.1355 6.5999C54.8755 6.5999 56.0655 7.1199 56.7055 8.1599C57.3455 9.1799 57.6655 10.7099 57.6655 12.7499V20.5499H59.6455V20.9999H53.0155V20.5499H54.9955V13.1699C54.9955 10.9099 54.8255 9.4199 54.4855 8.6999C54.3255 8.3799 54.0755 8.0899 53.7355 7.8299C53.4155 7.5699 52.9355 7.4399 52.2955 7.4399C51.6555 7.4399 51.0455 7.6699 50.4655 8.1299C49.9055 8.5899 49.4855 9.2199 49.2055 10.0199C48.7055 11.4399 48.4555 13.1399 48.4555 15.1199V20.5499H50.4355Z" fill="#222222"/>
<path d="M70.3822 3.0599C69.9222 3.0599 69.5123 3.2399 69.1523 3.5999C68.8123 3.9599 68.6423 4.4299 68.6423 5.0099C68.6423 6.0499 69.1122 6.9199 70.0522 7.6199C71.7122 8.8599 72.5423 10.5399 72.5423 12.6599C72.5423 14.4199 71.9823 15.8799 70.8623 17.0399C69.7623 18.1799 68.3522 18.7499 66.6322 18.7499C65.8122 18.7499 65.0622 18.6099 64.3822 18.3299C63.6422 18.5499 62.9822 18.8699 62.4022 19.2899C61.8422 19.7099 61.5622 20.1999 61.5622 20.7599C61.5622 21.7199 62.2322 22.1999 63.5722 22.1999C64.1722 22.1999 65.2522 21.8999 66.8122 21.2999C68.3722 20.7199 69.5323 20.4299 70.2923 20.4299C71.0723 20.4299 71.7222 20.6899 72.2422 21.2099C72.7622 21.7499 73.0222 22.4799 73.0222 23.3999C73.0222 24.8399 72.4622 25.9699 71.3422 26.7899C70.2222 27.6299 68.9622 28.0499 67.5622 28.0499C64.8222 28.0499 62.9922 26.8999 62.0722 24.5999C60.7722 24.3199 60.1222 23.4199 60.1222 21.8999C60.1222 21.0199 60.4722 20.2499 61.1722 19.5899C61.8722 18.9299 62.7422 18.4199 63.7822 18.0599C62.8222 17.5599 62.0722 16.8399 61.5322 15.8999C60.9922 14.9399 60.7222 13.8599 60.7222 12.6599C60.7222 10.8999 61.2722 9.4499 62.3722 8.3099C63.4922 7.1699 64.9122 6.5999 66.6322 6.5999C67.2922 6.5999 68.0023 6.7199 68.7623 6.9599L68.8223 6.8999C68.3422 6.3599 68.1022 5.7199 68.1022 4.9799C68.1022 4.2399 68.3422 3.6399 68.8223 3.1799C69.3223 2.7199 69.9122 2.4899 70.5922 2.4899C71.2722 2.4899 71.8122 2.6799 72.2122 3.0599C72.6322 3.4399 72.8422 3.8899 72.8422 4.4099C72.8422 4.9299 72.6823 5.3599 72.3623 5.6999C72.0623 6.0199 71.6823 6.1799 71.2223 6.1799C70.7823 6.1799 70.4023 6.0499 70.0823 5.7899C69.7823 5.5099 69.6322 5.1599 69.6322 4.7399C69.6322 4.0999 69.8922 3.7199 70.4122 3.5999C70.5922 3.5599 70.6823 3.4599 70.6823 3.2999C70.6823 3.1399 70.5822 3.0599 70.3822 3.0599ZM69.6622 14.7599C69.7422 14.1799 69.7822 13.4799 69.7822 12.6599C69.7822 11.8399 69.7422 11.1499 69.6622 10.5899C69.6022 10.0099 69.4722 9.4299 69.2722 8.8499C69.0722 8.2699 68.7522 7.8299 68.3122 7.5299C67.8722 7.2299 67.3122 7.0799 66.6322 7.0799C65.9522 7.0799 65.3922 7.2299 64.9522 7.5299C64.5122 7.8299 64.1922 8.2699 63.9922 8.8499C63.7922 9.4299 63.6522 10.0099 63.5722 10.5899C63.5122 11.1499 63.4822 11.8399 63.4822 12.6599C63.4822 13.4799 63.5122 14.1799 63.5722 14.7599C63.6522 15.3399 63.7922 15.9199 63.9922 16.4999C64.1922 17.0799 64.5122 17.5199 64.9522 17.8199C65.3922 18.1199 65.9522 18.2699 66.6322 18.2699C67.3122 18.2699 67.8722 18.1199 68.3122 17.8199C68.7522 17.5199 69.0722 17.0799 69.2722 16.4999C69.4722 15.9199 69.6022 15.3399 69.6622 14.7599ZM62.7622 24.6599H62.7322C63.0122 25.5599 63.5822 26.2699 64.4422 26.7899C65.3022 27.3099 66.2623 27.5699 67.3223 27.5699C68.4023 27.5699 69.3822 27.3199 70.2622 26.8199C71.1422 26.3199 71.5823 25.5999 71.5823 24.6599C71.5823 24.1199 71.4023 23.6899 71.0423 23.3699C70.7023 23.0699 70.2422 22.9199 69.6622 22.9199C69.1022 22.9199 67.9622 23.2099 66.2422 23.7899C64.5222 24.3699 63.3622 24.6599 62.7622 24.6599Z" fill="#222222"/>
<path d="M80.8738 6.5999C82.3738 6.5999 83.6238 6.9199 84.6238 7.5599C85.6438 8.1999 86.1538 9.1599 86.1538 10.4399C86.1538 12.4199 85.0238 13.6399 82.7638 14.0999C81.6238 14.3199 80.2038 14.4299 78.5038 14.4299H77.0938V15.2999C77.0938 16.9199 77.4238 18.2399 78.0838 19.2599C78.7638 20.2599 79.7438 20.7599 81.0238 20.7599C82.3238 20.7599 83.3338 20.3799 84.0538 19.6199C84.7938 18.8599 85.3138 17.8799 85.6138 16.6799L86.1538 16.7399C85.8338 18.1999 85.1838 19.3799 84.2038 20.2799C83.2438 21.1599 82.0238 21.5999 80.5438 21.5999C78.4638 21.5999 76.8838 20.9199 75.8038 19.5599C74.7238 18.1799 74.1838 16.3599 74.1838 14.0999C74.1838 11.8399 74.7638 10.0299 75.9238 8.6699C77.0838 7.2899 78.7338 6.5999 80.8738 6.5999ZM77.0938 13.8899H78.1438C79.7638 13.8899 80.8938 13.7299 81.5338 13.4099C82.1938 13.0899 82.6438 12.6999 82.8838 12.2399C83.1238 11.7599 83.2438 11.0899 83.2438 10.2299C83.2438 9.3699 83.0238 8.6399 82.5838 8.0399C82.1638 7.4199 81.5138 7.1099 80.6338 7.1099C79.7538 7.1099 79.0338 7.4299 78.4738 8.0699C77.9338 8.6899 77.5638 9.4199 77.3638 10.2599C77.1838 11.0999 77.0938 12.0299 77.0938 13.0499V13.8899Z" fill="#222222"/>
</svg>
