<svg width="48" height="37" viewBox="0 0 48 37" fill="none" xmlns="http://www.w3.org/2000/svg">
<path d="M11.739 7.49922V18.5275H10.8567V7.49922C10.8567 7.26232 10.8159 7.06217 10.7342 6.89879C10.6607 6.72724 10.5626 6.59654 10.4401 6.50668C10.3176 6.41682 10.1542 6.34738 9.94995 6.29836C9.75389 6.24118 9.56191 6.2085 9.37403 6.20034C9.18614 6.184 8.95332 6.17583 8.67557 6.17583C8.39782 6.17583 8.165 6.184 7.97711 6.20034C7.78922 6.2085 7.59316 6.24118 7.38894 6.29836C7.19288 6.34738 7.03358 6.41682 6.91105 6.50668C6.78851 6.59654 6.6864 6.72724 6.60471 6.89879C6.53118 7.06217 6.49442 7.26232 6.49442 7.49922V18.5275H5.61216V7.49922C5.61216 6.02878 6.6333 5.29357 8.67557 5.29357C10.7178 5.29357 11.739 6.02878 11.739 7.49922ZM13.5035 7.49922V18.5275H12.6212V7.49922C12.6212 6.46175 12.2536 5.68977 11.5184 5.18328C10.7914 4.66863 9.84375 4.41131 8.67557 4.41131C7.50739 4.41131 6.55569 4.66863 5.82047 5.18328C5.09342 5.68977 4.7299 6.46175 4.7299 7.49922V18.5275H3.84764V7.49922C3.84764 6.64147 4.0682 5.90625 4.50933 5.29357C4.95047 4.68089 5.52639 4.23567 6.2371 3.95792C6.95598 3.672 7.7688 3.52904 8.67557 3.52904C9.58234 3.52904 10.3911 3.672 11.1018 3.95792C11.8207 4.23567 12.4007 4.68089 12.8418 5.29357C13.2829 5.90625 13.5035 6.64147 13.5035 7.49922ZM15.268 7.49922V18.5275H14.3858V7.49922C14.3858 6.73133 14.2346 6.03695 13.9324 5.4161C13.6383 4.79525 13.2298 4.28469 12.707 3.8844C12.1842 3.48411 11.5797 3.17777 10.8935 2.96538C10.2073 2.75298 9.46797 2.64678 8.67557 2.64678C7.88317 2.64678 7.14386 2.75298 6.45766 2.96538C5.77146 3.17777 5.16695 3.48411 4.64412 3.8844C4.1213 4.28469 3.70876 4.79525 3.40651 5.4161C3.11242 6.03695 2.96538 6.73133 2.96538 7.49922V18.5275H2.08312V7.49922C2.08312 6.60879 2.25467 5.80005 2.59777 5.073C2.94904 4.34595 3.42285 3.74553 4.01919 3.27172C4.61553 2.78974 5.31399 2.41805 6.11456 2.15664C6.91513 1.89523 7.7688 1.76452 8.67557 1.76452C9.58234 1.76452 10.436 1.89523 11.2366 2.15664C12.0371 2.41805 12.7356 2.78974 13.3319 3.27172C13.9283 3.74553 14.398 4.34595 14.7411 5.073C15.0924 5.80005 15.268 6.60879 15.268 7.49922ZM17.0325 18.5275H16.1503V7.49922C16.1503 6.60879 15.9501 5.75512 15.5499 4.93821C15.1577 4.1213 14.6267 3.41876 13.9569 2.83059C13.287 2.23424 12.4905 1.76044 11.5674 1.40917C10.6443 1.0579 9.68037 0.882261 8.67557 0.882261C7.29499 0.882261 6.04104 1.14367 4.9137 1.66649C3.79454 2.18115 2.89594 2.94904 2.21791 3.97018C1.53987 4.98314 1.20086 6.15949 1.20086 7.49922V18.5275H0.318594V7.49922C0.318594 6.37189 0.53916 5.33441 0.98029 4.3868C1.42142 3.43918 2.01776 2.64678 2.76932 2.00959C3.52904 1.37241 4.41539 0.878177 5.42836 0.526906C6.44949 0.175635 7.5319 0 8.67557 0C10.7015 0 12.4579 0.510568 13.9446 1.5317C15.4314 0.510568 17.1878 0 19.2137 0C20.3574 0 21.4357 0.175635 22.4486 0.526906C23.4698 0.878177 24.3561 1.37241 25.1077 2.00959C25.8674 2.64678 26.4678 3.43918 26.909 4.3868C27.3501 5.33441 27.5707 6.37189 27.5707 7.49922V18.5275H26.6884V7.49922C26.6884 6.16766 26.3494 4.9954 25.6713 3.98243C24.9933 2.96129 24.0906 2.18931 22.9633 1.66649C21.8441 1.14367 20.5943 0.882261 19.2137 0.882261C17.4818 0.882261 15.9706 1.29072 14.6798 2.10762C14.8677 2.27101 15.076 2.4834 15.3048 2.74481C16.4239 2.09129 17.7269 1.76452 19.2137 1.76452C20.1205 1.76452 20.9741 1.89523 21.7747 2.15664C22.5753 2.41805 23.2737 2.78974 23.8701 3.27172C24.4664 3.74553 24.9361 4.34595 25.2792 5.073C25.6305 5.80005 25.8061 6.60879 25.8061 7.49922V18.5275H24.9239V7.49922C24.9239 6.73133 24.7728 6.03695 24.4705 5.4161C24.1764 4.79525 23.768 4.28469 23.2451 3.8844C22.7223 3.48411 22.1178 3.17777 21.4316 2.96538C20.7454 2.75298 20.0061 2.64678 19.2137 2.64678C17.9148 2.64678 16.7916 2.91228 15.8439 3.44327C15.991 3.672 16.138 3.92525 16.2851 4.20299C17.0856 3.75369 18.0618 3.52904 19.2137 3.52904C20.1205 3.52904 20.9292 3.672 21.6399 3.95792C22.3588 4.23567 22.9388 4.68089 23.3799 5.29357C23.8211 5.90625 24.0416 6.64147 24.0416 7.49922V18.5275H23.1594V7.49922C23.1594 6.46175 22.7917 5.68977 22.0565 5.18328C21.3295 4.66863 20.3819 4.41131 19.2137 4.41131C18.1517 4.41131 17.2899 4.60736 16.6282 4.99948C16.7344 5.30991 16.8161 5.60399 16.8732 5.88174C17.3879 5.48963 18.168 5.29357 19.2137 5.29357C21.256 5.29357 22.2771 6.02878 22.2771 7.49922V18.5275H21.3948V7.49922C21.3948 7.26232 21.354 7.06217 21.2723 6.89879C21.1988 6.72724 21.1007 6.59654 20.9782 6.50668C20.8557 6.41682 20.6923 6.34738 20.4881 6.29836C20.292 6.24118 20.1 6.2085 19.9121 6.20034C19.7243 6.184 19.4914 6.17583 19.2137 6.17583C18.9359 6.17583 18.7031 6.184 18.5152 6.20034C18.3273 6.2085 18.1313 6.24118 17.9271 6.29836C17.731 6.34738 17.5717 6.41682 17.4492 6.50668C17.3266 6.59654 17.2245 6.72724 17.1428 6.89879C17.0693 7.06217 17.0325 7.26232 17.0325 7.49922V18.5275Z" fill="#222222"/>
<path d="M35.8188 18.5275H34.9366V0.882261H35.8188V18.5275ZM34.0543 18.5275H33.172V0.882261H34.0543V18.5275ZM32.2898 18.5275H31.4075V0.882261H32.2898V18.5275ZM37.5833 14.1162H46.0261V14.9984H37.5833V15.8807H46.0261V16.763H37.5833V17.6452H46.0261V18.5275H36.7011V0.882261H46.0261V1.76452H37.5833V2.64678H46.0261V3.52904H37.5833V4.41131H46.0261V5.29357H37.5833V7.48697H45.536V8.36923H37.5833V9.25149H45.536V10.1338H37.5833V11.016H45.536V11.8983H37.5833V14.1162Z" fill="#222222"/>
<path d="M7.20513 24.8076C6.51893 25.4938 6.17583 26.323 6.17583 27.2951C6.17583 28.2672 6.51893 29.1005 7.20513 29.7949C7.89951 30.4811 8.73275 30.8242 9.70487 30.8242C10.677 30.8242 11.5062 30.4811 12.1924 29.7949C12.8867 29.1005 13.2339 28.2672 13.2339 27.2951C13.2339 26.323 12.8867 25.4938 12.1924 24.8076C11.5062 24.1133 10.677 23.7661 9.70487 23.7661C8.73275 23.7661 7.89951 24.1133 7.20513 24.8076ZM6.5802 30.4198C5.72244 29.5539 5.29357 28.5123 5.29357 27.2951C5.29357 26.0779 5.72244 25.0405 6.5802 24.1827C7.44612 23.3168 8.48768 22.8838 9.70487 22.8838C10.9221 22.8838 11.9595 23.3168 12.8173 24.1827C13.6832 25.0405 14.1162 26.0779 14.1162 27.2951C14.1162 28.5123 13.6832 29.5539 12.8173 30.4198C11.9595 31.2776 10.9221 31.7064 9.70487 31.7064C8.48768 31.7064 7.44612 31.2776 6.5802 30.4198ZM5.95526 23.5578C4.92596 24.5952 4.41131 25.841 4.41131 27.2951C4.41131 28.7492 4.92596 29.995 5.95526 31.0325C6.99274 32.07 8.24261 32.5887 9.70487 32.5887C11.1671 32.5887 12.4129 32.07 13.4422 31.0325C14.4797 29.995 14.9984 28.7492 14.9984 27.2951C14.9984 25.841 14.4797 24.5952 13.4422 23.5578C12.4129 22.5203 11.1671 22.0016 9.70487 22.0016C8.24261 22.0016 6.99274 22.5203 5.95526 23.5578ZM4.35004 30.3953C3.80271 29.4477 3.52904 28.4143 3.52904 27.2951C3.52904 26.176 3.80271 25.1426 4.35004 24.195C4.90554 23.2473 5.65709 22.4999 6.60471 21.9525C7.55232 21.397 8.58571 21.1193 9.70487 21.1193C10.824 21.1193 11.8574 21.397 12.805 21.9525C13.7527 22.4999 14.5001 23.2473 15.0475 24.195C15.603 25.1426 15.8807 26.176 15.8807 27.2951C15.8807 28.4143 15.603 29.4477 15.0475 30.3953C14.5001 31.3429 13.7527 32.0945 12.805 32.65C11.8574 33.1973 10.824 33.471 9.70487 33.471C8.58571 33.471 7.55232 33.1973 6.60471 32.65C5.65709 32.0945 4.90554 31.3429 4.35004 30.3953ZM3.1982 24.5626C2.83059 25.4285 2.64678 26.3393 2.64678 27.2951C2.64678 28.2509 2.83059 29.1658 3.1982 30.0399C3.57397 30.9059 4.07637 31.6574 4.70539 32.2946C5.34258 32.9236 6.09414 33.426 6.96006 33.8018C7.83415 34.1694 8.74909 34.3532 9.70487 34.3532C10.6607 34.3532 11.5715 34.1694 12.4374 33.8018C13.3115 33.426 14.0631 32.9236 14.6921 32.2946C15.3293 31.6574 15.8317 30.9059 16.1993 30.0399C16.5751 29.1658 16.763 28.2509 16.763 27.2951C16.763 26.3393 16.5751 25.4285 16.1993 24.5626C15.8317 23.6885 15.3293 22.9369 14.6921 22.3079C14.0631 21.6707 13.3115 21.1683 12.4374 20.8007C11.5715 20.4249 10.6607 20.237 9.70487 20.237C8.74909 20.237 7.83415 20.4249 6.96006 20.8007C6.09414 21.1683 5.34258 21.6707 4.70539 22.3079C4.07637 22.9369 3.57397 23.6885 3.1982 24.5626ZM2.38946 30.383C1.97283 29.4028 1.76452 28.3734 1.76452 27.2951C1.76452 26.2168 1.97283 25.1875 2.38946 24.2072C2.81425 23.2269 3.37792 22.3855 4.08046 21.683C4.79117 20.9723 5.63667 20.4086 6.61696 19.992C7.59725 19.5672 8.62655 19.3548 9.70487 19.3548C10.7832 19.3548 11.8125 19.5672 12.7928 19.992C13.7731 20.4086 14.6145 20.9723 15.317 21.683C16.0277 22.3855 16.5914 23.2269 17.008 24.2072C17.4328 25.1875 17.6452 26.2168 17.6452 27.2951C17.6452 28.3734 17.4328 29.4028 17.008 30.383C16.5914 31.3633 16.0277 32.2088 15.317 32.9195C14.6145 33.6221 13.7731 34.1858 12.7928 34.6105C11.8125 35.0272 10.7832 35.2355 9.70487 35.2355C8.62655 35.2355 7.59725 35.0272 6.61696 34.6105C5.63667 34.1858 4.79117 33.6221 4.08046 32.9195C3.37792 32.2088 2.81425 31.3633 2.38946 30.383ZM1.58072 23.8764C1.11508 24.9629 0.882261 26.1024 0.882261 27.2951C0.882261 28.4878 1.11508 29.6315 1.58072 30.7261C2.04636 31.8126 2.67129 32.7521 3.45552 33.5445C4.24792 34.3287 5.18737 34.9536 6.27386 35.4193C7.36851 35.8849 8.51219 36.1177 9.70487 36.1177C10.8976 36.1177 12.0371 35.8849 13.1236 35.4193C14.2183 34.9536 15.1577 34.3287 15.942 33.5445C16.7344 32.7521 17.3634 31.8126 17.829 30.7261C18.2947 29.6315 18.5275 28.4878 18.5275 27.2951C18.5275 26.1024 18.2947 24.9629 17.829 23.8764C17.3634 22.7817 16.7344 21.8423 15.942 21.058C15.1577 20.2656 14.2183 19.6366 13.1236 19.171C12.0371 18.7053 10.8976 18.4725 9.70487 18.4725C8.51219 18.4725 7.36851 18.7053 6.27386 19.171C5.18737 19.6366 4.24792 20.2656 3.45552 21.058C2.67129 21.8423 2.04636 22.7817 1.58072 23.8764ZM0.771979 31.0692C0.257326 29.8684 0 28.6103 0 27.2951C0 25.9799 0.257326 24.726 0.771979 23.5333C1.28663 22.3324 1.97692 21.299 2.84284 20.4331C3.70876 19.5672 4.73807 18.8769 5.93076 18.3622C7.13161 17.8476 8.38965 17.5903 9.70487 17.5903C11.0201 17.5903 12.2741 17.8476 13.4667 18.3622C14.6676 18.8769 15.701 19.5672 16.5669 20.4331C17.4328 21.299 18.1231 22.3324 18.6378 23.5333C19.1524 24.726 19.4097 25.9799 19.4097 27.2951C19.4097 28.6103 19.1524 29.8684 18.6378 31.0692C18.1231 32.2619 17.4328 33.2912 16.5669 34.1572C15.701 35.0231 14.6676 35.7134 13.4667 36.228C12.2741 36.7427 11.0201 37 9.70487 37C8.38965 37 7.13161 36.7427 5.93076 36.228C4.73807 35.7134 3.70876 35.0231 2.84284 34.1572C1.97692 33.2912 1.28663 32.2619 0.771979 31.0692Z" fill="#222222"/>
<path d="M38.9205 30.4443C39.092 30.4525 39.3003 30.4566 39.5454 30.4566C39.7905 30.4566 39.9947 30.4525 40.1581 30.4443C40.3296 30.428 40.5053 30.3953 40.685 30.3463C40.8647 30.2891 41.0077 30.2156 41.1139 30.1257C41.2201 30.0359 41.3058 29.9092 41.3712 29.7459C41.4447 29.5743 41.4815 29.3701 41.4815 29.1332V18.4725H42.3637V29.1332C42.3637 30.6036 41.4243 31.3388 39.5454 31.3388C38.5978 31.3388 37.8952 31.1591 37.4378 30.7997C37.3724 31.1183 37.2948 31.4001 37.205 31.6452C37.8258 32.0291 38.606 32.2211 39.5454 32.2211C40.6401 32.2211 41.5305 31.9678 42.2167 31.4614C42.9029 30.9467 43.246 30.1706 43.246 29.1332V18.4725H44.1283V29.1332C44.1283 30.4157 43.6953 31.4001 42.8294 32.0863C41.9716 32.7643 40.877 33.1033 39.5454 33.1033C38.5079 33.1033 37.6175 32.891 36.8741 32.4662C36.7516 32.7276 36.6086 32.9767 36.4452 33.2136C37.3357 33.7283 38.369 33.9856 39.5454 33.9856C40.3051 33.9856 41.0117 33.8794 41.6653 33.667C42.327 33.4546 42.907 33.1483 43.4053 32.748C43.9036 32.3477 44.2957 31.8371 44.5816 31.2163C44.8676 30.5954 45.0105 29.9011 45.0105 29.1332V18.4725H45.8928V29.1332C45.8928 30.3095 45.6028 31.3388 45.0228 32.2211C44.4509 33.1033 43.6871 33.765 42.7313 34.2062C41.7837 34.6473 40.7217 34.8679 39.5454 34.8679C38.173 34.8679 36.964 34.5534 35.9183 33.9243C35.6896 34.1858 35.4813 34.3981 35.2934 34.5615C36.5106 35.3539 37.9279 35.7501 39.5454 35.7501C40.877 35.7501 42.086 35.4887 43.1725 34.9659C44.259 34.4431 45.129 33.6752 45.7825 32.6622C46.4442 31.6411 46.775 30.4647 46.775 29.1332V18.4725H47.6573V29.1332C47.6573 30.2605 47.4408 31.298 47.0079 32.2456C46.5831 33.1932 46.0031 33.9856 45.2678 34.6228C44.5408 35.26 43.683 35.7542 42.6946 36.1055C41.7061 36.4568 40.6564 36.6324 39.5454 36.6324C37.6012 36.6324 35.9387 36.1341 34.5582 35.1374C33.1286 36.1341 31.4417 36.6324 29.4974 36.6324C28.3864 36.6324 27.3367 36.4568 26.3482 36.1055C25.3598 35.7542 24.4979 35.26 23.7627 34.6228C23.0357 33.9856 22.4557 33.1932 22.0227 32.2456C21.5979 31.298 21.3855 30.2605 21.3855 29.1332V18.4725H22.2678V29.1332C22.2678 30.138 22.4557 31.0611 22.8314 31.9025C23.2154 32.7439 23.7341 33.4424 24.3877 33.9979C25.0412 34.5534 25.805 34.9863 26.6791 35.2967C27.5614 35.599 28.5008 35.7501 29.4974 35.7501C30.7963 35.7501 32.0012 35.456 33.1122 34.8679C34.2232 34.2715 35.1014 33.4669 35.7468 32.4539C36.4003 31.4328 36.7271 30.3259 36.7271 29.1332V18.4725H37.6093V29.1332C37.6093 29.3701 37.642 29.5743 37.7074 29.7459C37.7809 29.9092 37.8707 30.0359 37.9769 30.1257C38.0831 30.2156 38.2261 30.2891 38.4058 30.3463C38.5855 30.3953 38.7571 30.428 38.9205 30.4443ZM32.3158 18.4725V29.1332C32.3158 30.6036 31.3763 31.3388 29.4974 31.3388C27.6185 31.3388 26.6791 30.6036 26.6791 29.1332V18.4725H27.5614V29.1332C27.5614 29.3701 27.594 29.5743 27.6594 29.7459C27.7329 29.9092 27.8228 30.0359 27.929 30.1257C28.0352 30.2156 28.1781 30.2891 28.3578 30.3463C28.5376 30.3953 28.7091 30.428 28.8725 30.4443C29.044 30.4525 29.2524 30.4566 29.4974 30.4566C29.7425 30.4566 29.9467 30.4525 30.1101 30.4443C30.2817 30.428 30.4573 30.3953 30.637 30.3463C30.8167 30.2891 30.9597 30.2156 31.0659 30.1257C31.1721 30.0359 31.2579 29.9092 31.3232 29.7459C31.3967 29.5743 31.4335 29.3701 31.4335 29.1332V18.4725H32.3158ZM34.0803 18.4725V29.1332C34.0803 30.4157 33.6473 31.4001 32.7814 32.0863C31.9236 32.7643 30.829 33.1033 29.4974 33.1033C28.1659 33.1033 27.0671 32.7643 26.2012 32.0863C25.3434 31.4001 24.9146 30.4157 24.9146 29.1332V18.4725H25.7968V29.1332C25.7968 30.1706 26.1399 30.9467 26.8261 31.4614C27.5123 31.9678 28.4028 32.2211 29.4974 32.2211C30.5921 32.2211 31.4825 31.9678 32.1687 31.4614C32.8549 30.9467 33.198 30.1706 33.198 29.1332V18.4725H34.0803ZM35.8448 18.4725V29.1332C35.8448 30.3095 35.5548 31.3388 34.9748 32.2211C34.403 33.1033 33.6391 33.765 32.6834 34.2062C31.7358 34.6473 30.6738 34.8679 29.4974 34.8679C28.3211 34.8679 27.255 34.6473 26.2992 34.2062C25.3516 33.765 24.5878 33.1033 24.0078 32.2211C23.436 31.3388 23.15 30.3095 23.15 29.1332V18.4725H24.0323V29.1332C24.0323 29.9011 24.1753 30.5954 24.4612 31.2163C24.7471 31.8371 25.1392 32.3477 25.6375 32.748C26.1358 33.1483 26.7118 33.4546 27.3653 33.667C28.027 33.8794 28.7377 33.9856 29.4974 33.9856C30.2571 33.9856 30.9638 33.8794 31.6173 33.667C32.279 33.4546 32.859 33.1483 33.3573 32.748C33.8556 32.3477 34.2477 31.8371 34.5337 31.2163C34.8196 30.5954 34.9625 29.9011 34.9625 29.1332V18.4725H35.8448Z" fill="#222222"/>
</svg>
