<svg width="61" height="29" viewBox="0 0 61 29" fill="none" xmlns="http://www.w3.org/2000/svg">
<path d="M30.9336 29H21.297L33.9692 0H61L58.4945 7.424H48.6651L48.9542 11.3216H57.0972L55.8444 18.0496H49.436L49.7251 21.576H59.3618L58.0126 29H40.5703L40.3776 24.4064H32.8128L30.9336 29ZM19.7551 28.8144L0 26.7728H20.6706L19.7551 28.8144ZM21.7306 24.3136L1.97551 22.272H22.6461L21.7306 24.3136ZM23.7062 19.8592L3.95103 17.8176H24.5735L23.7062 19.8592ZM25.6335 15.4048L5.92654 13.3632H26.549L25.6335 15.4048ZM27.609 10.9504L7.90205 8.9088H28.4763L27.609 10.9504ZM31.5118 1.9952L11.8531 0H32.3791L31.5118 1.9952ZM29.5363 6.4496L9.87757 4.4544H30.4036L29.5363 6.4496ZM39.6548 17.0288V8.9088H39.173L35.8002 17.0288H39.6548Z" fill="#222222"/>
</svg>
