<svg width="100" height="100" viewBox="0 0 100 100" fill="none" xmlns="http://www.w3.org/2000/svg">
<path d="M31.6057 42.2083L8 39.0559L32.2713 37.8623C31.9544 39.15 31.7325 40.5987 31.6057 42.2083ZM34.8386 28.5909L33.4123 32.8403L10.6623 29.7845L34.8386 28.5909ZM31.6057 47.1337C31.7325 48.8721 31.9861 50.3208 32.3664 51.4797L8.85575 48.3273L31.6057 47.1337ZM44.9174 60.7511L11.3279 57.5987L35.5992 56.4052C37.6911 58.4655 40.7971 59.9141 44.9174 60.7511ZM41.9698 19.3195C40.5119 20.2853 39.1173 21.6052 37.7862 23.2792L17.7936 20.5131L41.9698 19.3195ZM9.7115 66.8701L28.5631 65.6766L27.1368 69.926L9.7115 66.8701ZM8.09508 76.2381L25.5204 75.0446L24.0941 79.294L8.09508 76.2381ZM32.6517 62.6827C37.9763 64.1635 42.8256 64.9039 47.1994 64.9039C51.6367 64.9039 55.2498 64.7108 58.039 64.3245L58.7996 59.4956L50.9077 58.723C44.8857 58.1435 40.607 56.7593 38.0714 54.5702C35.5992 52.3811 34.3632 49.2906 34.3632 45.2988C34.3632 43.5604 34.5533 41.6288 34.9337 39.5041C36.3916 31.2629 39.0539 25.597 42.9207 22.5066C46.7874 19.4161 52.7143 17.8708 60.7013 17.8708C68.7517 17.8708 75.8513 18.6757 82 20.2853L77.0557 35.7376C71.5408 34.7719 67.1036 34.289 63.744 34.289C60.4477 34.289 57.5952 34.4499 55.1865 34.7719L54.4258 39.5041L60.7964 40.1802C67.2621 40.8884 71.8578 42.4658 74.5835 44.9125C77.3092 47.2947 78.6721 50.5139 78.6721 54.5702C78.6721 58.6908 77.8163 62.9402 76.1048 67.3184C75.154 69.5718 74.1398 71.4712 73.0621 73.0164C72.0479 74.4973 70.7168 75.785 69.0686 76.8795C67.4839 77.9097 66.026 78.7145 64.6948 79.294C63.3636 79.809 61.6521 80.1953 59.5603 80.4529C56.6444 80.9036 53.0312 81.1289 48.7208 81.1289C40.8605 81.1289 33.7293 80.2919 27.327 78.6179L32.6517 62.6827Z" fill="#222222"/>
</svg>
