<svg version="1.1" xmlns="http://www.w3.org/2000/svg" xmlns:xlink="http://www.w3.org/1999/xlink" viewBox="0 0 171 171"><g fill="none" fill-rule="nonzero" stroke="none" stroke-width="1" stroke-linecap="butt" stroke-linejoin="miter" stroke-miterlimit="10" stroke-dasharray="" stroke-dashoffset="0" font-family="none" font-weight="none" font-size="none" text-anchor="none" style="mix-blend-mode: normal"><path d="M0,171.99654v-171.99654h171.99654v171.99654z" fill="none"></path><g fill="#777777"><path d="M54.72,10.26c-24.51291,0 -44.46,19.94709 -44.46,44.46v61.56c0,24.5129 19.94709,44.46 44.46,44.46h61.56c24.5129,0 44.46,-19.9471 44.46,-44.46v-61.56c0,-24.51291 -19.9471,-44.46 -44.46,-44.46zM54.72,17.1h61.56c20.81578,0 37.62,16.80423 37.62,37.62v61.56c0,20.81578 -16.80422,37.62 -37.62,37.62h-61.56c-20.81577,0 -37.62,-16.80422 -37.62,-37.62v-61.56c0,-20.81577 16.80423,-37.62 37.62,-37.62zM126.54,37.62c-3.77763,0 -6.84,3.06237 -6.84,6.84c0,3.77763 3.06237,6.84 6.84,6.84c3.77763,0 6.84,-3.06237 6.84,-6.84c0,-3.77763 -3.06237,-6.84 -6.84,-6.84zM85.5,47.88c-20.73644,0 -37.62,16.88356 -37.62,37.62c0,20.73644 16.88356,37.62 37.62,37.62c20.73644,0 37.62,-16.88356 37.62,-37.62c0,-20.73644 -16.88356,-37.62 -37.62,-37.62zM85.5,54.72c17.03983,0 30.78,13.74017 30.78,30.78c0,17.03983 -13.74017,30.78 -30.78,30.78c-17.03983,0 -30.78,-13.74017 -30.78,-30.78c0,-17.03983 13.74017,-30.78 30.78,-30.78z"></path></g></g></svg>