<svg version="1.1" xmlns="http://www.w3.org/2000/svg" xmlns:xlink="http://www.w3.org/1999/xlink" viewBox="0 0 171 171"><g fill="none" fill-rule="nonzero" stroke="none" stroke-width="1" stroke-linecap="butt" stroke-linejoin="miter" stroke-miterlimit="10" stroke-dasharray="" stroke-dashoffset="0" font-family="none" font-weight="none" font-size="none" text-anchor="none" style="mix-blend-mode: normal"><path d="M0,171.99654v-171.99654h171.99654v171.99654z" fill="none"></path><g fill="#777777"><path d="M85.5,6.84c-36.2707,0 -66.87703,24.68813 -75.93469,58.14h7.13391c2.565,-8.56336 6.71976,-16.41867 12.05015,-23.31211c5.83805,3.2864 12.59789,6.03844 20.07914,8.14922c-1.25578,4.79602 -2.28445,9.84586 -3.00586,15.16289h6.97359c0.69469,-4.7025 1.6432,-9.19125 2.76539,-13.46625c8.24273,1.81687 17.15344,2.89898 26.51836,3.09937v10.36688h6.84v-10.36688c9.36492,-0.20039 18.27562,-1.26914 26.51836,-3.09937c1.12219,4.275 2.0707,8.76375 2.76539,13.46625h6.9736c-0.72141,-5.31703 -1.75008,-10.36688 -3.00586,-15.16289c7.48125,-2.11078 14.2411,-4.86281 20.07914,-8.14922c5.33039,6.89344 9.48516,14.74875 12.0368,23.31211h7.14727c-9.05765,-33.45187 -39.66398,-58.14 -75.93469,-58.14zM82.08,14.09414v33.67898c-8.69695,-0.20039 -16.9664,-1.20234 -24.58125,-2.8589c5.6243,-16.81945 14.535,-28.60242 24.58125,-30.82008zM88.92,14.09414c10.04625,2.21765 18.95695,14.00062 24.58125,30.82008c-7.61484,1.65656 -15.8843,2.65851 -24.58125,2.8589zM65.43422,16.59235c-6.02508,6.35906 -11.06156,15.52359 -14.69531,26.63859c-6.53274,-1.84359 -12.43758,-4.18148 -17.48742,-6.89344c8.65688,-9.20461 19.7318,-16.09805 32.18274,-19.74515zM105.56578,16.59235c12.45094,3.64711 23.52586,10.54055 32.18273,19.74515c-5.04985,2.71195 -10.95469,5.04985 -17.48742,6.89344c-3.63375,-11.115 -8.67024,-20.27953 -14.69531,-26.63859zM10.26,71.82l8.6836,27.36h7.96219l7.24078,-20.4532l7.24078,20.4532h7.78851l8.84391,-27.36h-7.4011l-5.58422,19.11727l-6.38578,-19.11727h-8.72367l-6.65297,18.79664l-5.4907,-18.79664zM61.61344,71.82l8.69695,27.36h7.97555l7.21406,-20.4532l7.25414,20.4532h7.78852l8.8439,-27.36h-7.41445l-5.57086,19.11727l-6.38578,-19.11727h-8.73703l-6.65297,18.79664l-5.47735,-18.79664zM112.80656,71.82l8.71031,27.36h8.00227l7.25414,-20.4532l7.28086,20.4532h7.81523l8.87063,-27.36h-7.42781l-5.61094,19.11727l-6.39914,-19.11727h-8.76375l-6.67969,18.79664l-5.51742,-18.79664zM9.56531,106.02c9.05766,33.45187 39.66398,58.14 75.93469,58.14c36.2707,0 66.87703,-24.68813 75.93469,-58.14h-7.14727c-2.55164,8.56336 -6.7064,16.41867 -12.0368,23.31211c-5.83805,-3.2864 -12.59789,-6.03844 -20.07914,-8.14922c1.25578,-4.79602 2.28445,-9.84586 3.00586,-15.16289h-6.9736c-0.69469,4.7025 -1.6432,9.19125 -2.76539,13.46625c-8.24273,-1.81687 -17.15344,-2.89898 -26.51836,-3.09937v-10.36688h-6.84v10.36688c-9.36492,0.20039 -18.27562,1.26914 -26.51836,3.09937c-1.12219,-4.275 -2.0707,-8.76375 -2.76539,-13.46625h-6.97359c0.7214,5.31703 1.75008,10.36688 3.00586,15.16289c-7.48125,2.11078 -14.2411,4.86281 -20.07914,8.14922c-5.33039,-6.89344 -9.48515,-14.74875 -12.05015,-23.31211zM82.08,123.22688v33.67898c-10.04625,-2.21765 -18.95695,-14.00063 -24.58125,-30.82008c7.61485,-1.65656 15.8843,-2.65852 24.58125,-2.85891zM88.92,123.22688c8.69695,0.20039 16.96641,1.20235 24.58125,2.85891c-5.6243,16.81945 -14.535,28.60242 -24.58125,30.82008zM50.75227,127.76906c3.63375,11.115 8.65688,20.27953 14.68195,26.62523c-12.45094,-3.63375 -23.52586,-10.52719 -32.18274,-19.7318c5.04985,-2.72531 10.95469,-5.04984 17.50078,-6.89344zM120.2611,127.76906c6.53273,1.8436 12.43758,4.18148 17.48742,6.89344c-8.65688,9.20461 -19.7318,16.09805 -32.18273,19.7318c6.02508,-6.3457 11.06156,-15.51023 14.69531,-26.62523z"></path></g></g></svg>