<svg version="1.1" xmlns="http://www.w3.org/2000/svg" xmlns:xlink="http://www.w3.org/1999/xlink" viewBox="0 0 171 171"><g fill="none" fill-rule="nonzero" stroke="none" stroke-width="1" stroke-linecap="butt" stroke-linejoin="miter" stroke-miterlimit="10" stroke-dasharray="" stroke-dashoffset="0" font-family="none" font-weight="none" font-size="none" text-anchor="none" style="mix-blend-mode: normal"><path d="M0,171.99654v-171.99654h171.99654v171.99654z" fill="none"></path><g fill="#bec0c0"><path d="M40.49227,10.21992c-2.6318,-0.21375 -5.5575,0.54774 -8.2561,2.44477c-2.37797,1.65656 -7.50797,5.73117 -12.30398,10.34016c-2.39133,2.29781 -4.67578,4.68914 -6.43922,7.04039c-1.7768,2.35125 -3.32649,4.50211 -3.23297,7.6282c0.09352,2.80547 0.37406,11.10164 6.3457,23.81977c5.97164,12.70477 17.55422,30.13875 40.14492,52.74281c22.60406,22.60406 40.03805,34.18664 52.74281,40.15828c12.70477,5.97164 21.0143,6.25219 23.81977,6.3457c3.11273,0.09352 5.26359,-1.45617 7.61484,-3.23297c2.35125,-1.7768 4.74258,-4.04789 7.04039,-6.43922c4.59563,-4.79602 8.67023,-9.92602 10.3268,-12.30398c3.7807,-5.38383 3.15281,-11.74289 -1.05539,-14.69531c-2.64516,-1.85695 -26.97258,-18.04852 -30.63305,-20.29289c-3.7139,-2.27109 -7.9889,-1.24242 -11.80969,0.77485c-3.00586,1.58976 -11.14172,6.25219 -13.46625,7.58812c-1.75008,-1.10883 -8.38969,-5.53078 -22.67086,-19.81195c-14.29453,-14.28117 -18.70312,-20.92078 -19.81195,-22.67086c1.33594,-2.32453 5.985,-10.42031 7.58813,-13.47961c2.00391,-3.80742 3.1261,-8.1225 0.73477,-11.86312c-1.00195,-1.58976 -5.5575,-8.52328 -10.15312,-15.48351c-4.60898,-6.96024 -8.9775,-13.55977 -10.11305,-15.13617v-0.01336c-1.48289,-2.04398 -3.79406,-3.24633 -6.4125,-3.46008zM85.5,17.1v6.84c33.94617,0 61.56,27.61383 61.56,61.56h6.84c0,-37.71352 -30.68648,-68.4 -68.4,-68.4zM39.86438,17.20688c0.93516,0.12023 1.49625,0.4943 1.49625,0.4943c0.54773,0.76149 5.34375,7.94883 9.93937,14.8957c4.59562,6.96023 9.28477,14.09414 10.09969,15.39c0.1336,0.20039 0.32062,2.47148 -1.01531,4.99641v0.01336c-1.50961,2.87227 -8.55,15.17625 -8.55,15.17625l-0.97523,1.72336l1.00195,1.71c0,0 5.25023,8.85727 21.94945,25.55648c16.71258,16.69922 25.56985,21.96281 25.56985,21.96281l1.71,1.00195l1.72336,-0.97523c0,0 12.27727,-7.02703 15.17625,-8.55c2.52492,-1.32258 4.79602,-1.14891 5.0632,-0.9886c2.36461,1.45617 28.6425,18.91688 30.25898,20.05242c0.05344,0.04008 1.48289,2.2043 -0.60117,5.17008h-0.01336c-1.25578,1.80352 -5.37047,7.02703 -9.65883,11.48906c-2.15086,2.23102 -4.35516,4.31508 -6.22547,5.71781c-1.87031,1.40274 -3.54023,1.8436 -3.27305,1.85695c-2.91234,-0.09352 -9.3382,-0.16031 -21.13453,-5.70445c-11.79633,-5.53078 -28.62914,-16.6057 -50.81906,-38.80898c-22.17656,-22.17656 -33.25149,-39.00937 -38.79562,-50.81906c-5.53078,-11.79633 -5.59758,-18.22219 -5.6911,-21.12117c0.01336,0.26719 0.45422,-1.4161 1.85695,-3.28641c1.40273,-1.87031 3.47344,-4.08797 5.70445,-6.23883c4.47539,-4.28836 9.68555,-8.40305 11.48906,-9.65883v0.01336c1.48289,-1.04203 2.77875,-1.17562 3.7139,-1.06875zM85.5,36.05695v6.84c23.49914,0 42.60305,19.11727 42.60305,42.60305h6.84c0,-27.26648 -22.17656,-49.44305 -49.44305,-49.44305zM85.5,54.72v6.84c13.19906,0 23.94,10.74094 23.94,23.94h6.84c0,-16.97977 -13.81359,-30.78 -30.78,-30.78z"></path></g></g></svg>