<svg version="1.1" xmlns="http://www.w3.org/2000/svg" xmlns:xlink="http://www.w3.org/1999/xlink" viewBox="0 0 171 171"><g fill="none" fill-rule="nonzero" stroke="none" stroke-width="1" stroke-linecap="butt" stroke-linejoin="miter" stroke-miterlimit="10" stroke-dasharray="" stroke-dashoffset="0" font-family="none" font-weight="none" font-size="none" text-anchor="none" style="mix-blend-mode: normal"><path d="M0,171.99654v-171.99654h171.99654v171.99654z" fill="none"></path><g fill="#777777"><path d="M124.09557,23.9076l-26.44221,19.59286c-2.25864,1.66975 -5.11323,2.31751 -7.87134,1.78615l-45.07052,-8.73369c-8.28708,-1.59931 -16.46612,3.23076 -19.06717,11.25995l-0.29658,0.91779c-0.48433,1.49848 0.1439,3.13169 1.50761,3.91931l40.10217,23.16248l-23.68216,29.68587l-3.39295,-0.99026c-5.5593,-1.64444 -11.57375,-0.26783 -15.86426,3.63108l-2.93472,2.64749c-0.68024,0.6133 -1.07876,1.47904 -1.10232,2.39463c-0.02355,0.91559 0.32993,1.80068 0.97774,2.44814l34.28216,34.28183c0.62633,0.62634 1.47583,0.97823 2.3616,0.97824h0.08583c0.91534,-0.02368 1.78082,-0.42213 2.394,-1.10215l2.64749,-2.93472c3.89907,-4.29027 5.27628,-10.30443 3.63275,-15.86392l-0.99026,-3.39261l29.69121,-23.6855l23.34785,40.29688c0.78877,1.36054 2.41983,1.98648 3.9163,1.50293l0.91812,-0.29658c8.02893,-2.60142 12.85893,-10.78011 11.26028,-19.06717l-8.73603,-45.07153c-0.53151,-2.75801 0.11626,-5.61256 1.78615,-7.87101l19.58952,-26.4382c5.50538,-6.47429 5.06682,-16.10361 -1.00429,-22.05065c-5.99376,-5.96054 -15.53348,-6.39656 -22.04597,-1.00763zM141.99346,42.71326c-0.05143,0.05978 -0.1002,0.12157 -0.14762,0.18503l-19.65632,26.52838c-2.78305,3.76421 -3.86263,8.52184 -2.9768,13.11857l8.73369,45.07019c0.83712,4.34296 -1.26827,8.72182 -5.1831,10.78001l-21.9224,-37.83609c-0.97446,-1.68191 -2.63323,-2.85592 -4.54346,-3.21566c-1.91023,-0.35975 -3.88242,0.13045 -5.40192,1.34268l-31.44096,25.08223c-1.05923,0.845 -1.50296,2.24623 -1.12319,3.54691l1.61782,5.54414c0.98658,3.33551 0.16079,6.94408 -2.17825,9.51855l-0.29224,0.32396l-29.3108,-29.31114l0.32396,-0.29224c2.57441,-2.33915 6.18298,-3.16507 9.51855,-2.17858l5.54414,1.61782c1.30068,0.37977 2.70191,-0.06396 3.54691,-1.12319l25.07889,-31.43661c1.21328,-1.52073 1.7033,-3.49484 1.34199,-5.40641c-0.36131,-1.91158 -1.53803,-3.57065 -3.22265,-4.54365l-37.63603,-21.73804c2.05879,-3.91311 6.43668,-6.017 10.77834,-5.17976l45.07052,8.73369c4.59673,0.88583 9.35437,-0.19375 13.11857,-2.9768l26.52838,-19.65632c0.06079,-0.04509 0.1199,-0.09185 0.17735,-0.14094c3.85033,-3.2258 9.52612,-2.97948 13.0825,0.56777c3.67516,3.67683 3.91697,9.17555 0.57412,13.07549z"></path></g></g></svg>